<?xml version="1.0" encoding="UTF-8" standalone="no"?>
<svg
   xmlns:dc="http://purl.org/dc/elements/1.1/"
   xmlns:cc="http://creativecommons.org/ns#"
   xmlns:rdf="http://www.w3.org/1999/02/22-rdf-syntax-ns#"
   xmlns:svg="http://www.w3.org/2000/svg"
   xmlns="http://www.w3.org/2000/svg"
   version="1.1"
   id="svg2"
   viewBox="0 0 429.99998 255.9097"
   height="72.223404mm"
   width="121.35555mm">
  <defs
     id="defs4" />
  <metadata
     id="metadata7">
    <rdf:RDF>
      <cc:Work
         rdf:about="">
        <dc:format>image/svg+xml</dc:format>
        <dc:type
           rdf:resource="http://purl.org/dc/dcmitype/StillImage" />
        <dc:title></dc:title>
      </cc:Work>
    </rdf:RDF>
  </metadata>
  <g
     transform="translate(-143.17383,-294.40039)"
     id="layer1">
    <path
       d="m 243.17383,380.64258 c -1.04262,0.13635 -1.97144,0.15393 -3.03516,0.3125 -5.38358,0.80253 -11.04011,1.89365 -17,3.31054 -5.95989,1.4169 -12.22255,3.16086 -18.81836,5.26758 -6.5958,2.10673 -13.52509,4.57719 -20.8164,7.44922 -7.29132,2.87203 -14.94381,6.14462 -22.99024,9.85742 -5.50439,2.53985 -11.4586,5.58384 -17.33984,8.54688 l 0,115.64648 c 2.05328,-2.07191 4.19767,-4.45944 6.21484,-6.40625 6.0128,-5.80305 11.86731,-11.05645 17.57422,-15.79687 5.70692,-4.74043 11.26598,-8.96761 16.68945,-12.71875 5.42348,-3.75114 10.71252,-7.02612 15.875,-9.86133 2.58125,-1.4176 5.13019,-2.72536 7.65039,-3.92773 2.52021,-1.20238 5.01069,-2.29861 7.47266,-3.29493 2.46197,-0.99631 4.89619,-1.89198 7.30273,-2.6914 2.40655,-0.79942 4.78475,-1.50354 7.13868,-2.11524 4.70785,-1.22339 9.31391,-2.07991 13.82812,-2.60742 0.0863,-0.0101 0.16768,-0.002 0.25391,-0.0117 l 0,-90.95898 z m 10,-1.02735 0,91.51172 c 0.99841,-0.009 2.03738,-0.16619 3.02734,-0.14453 4.34302,0.095 8.60455,0.48273 12.79883,1.12696 4.19428,0.6442 8.32069,1.54597 12.38867,2.66601 4.06798,1.12005 8.07884,2.45989 12.04297,3.98242 3.96413,1.52253 7.88094,3.22646 11.76367,5.07813 3.88274,1.85166 7.7309,3.84958 11.55469,5.95703 3.82379,2.10745 7.62287,4.32535 11.41016,6.61523 7.57457,4.57978 15.09884,9.45089 22.66211,14.32032 0.77661,0.5 1.57402,0.9691 2.35156,1.46875 l 0,-105.1836 c -1.23095,-0.46657 -2.48317,-0.87406 -3.70313,-1.375 -5.79705,-2.38037 -11.49456,-5.11738 -17.33203,-7.9082 -5.83746,-2.79082 -11.81524,-5.63492 -18.16992,-8.23242 -3.17734,-1.29875 -6.44966,-2.53662 -9.8457,-3.67383 -3.39605,-1.13721 -6.9155,-2.17401 -10.58985,-3.07422 -3.67435,-0.90021 -7.50336,-1.66422 -11.51562,-2.25195 -4.01226,-0.58773 -8.20742,-0.99944 -12.61719,-1.19922 -4.40976,-0.19978 -9.03352,-0.18747 -13.90039,0.0762 -0.73702,0.0399 -1.57788,0.18869 -2.32617,0.24023 z m 110,30.63477 0,108.19727 c 3.51504,2.20251 6.98586,4.48393 10.54687,6.58984 3.86578,2.28614 7.76356,4.49974 11.70508,6.60156 3.94152,2.10183 7.92708,4.09334 11.9668,5.9375 4.03971,1.84416 8.13261,3.53959 12.29297,5.05274 4.16035,1.51315 8.38795,2.84238 12.6914,3.95117 4.30345,1.10879 8.68336,1.99783 13.15235,2.6289 4.46899,0.63108 9.02661,1.00592 13.68359,1.08594 4.55252,0.0782 9.20755,-0.14636 13.96094,-0.66406 l 0,-165.97461 c -2.5473,1.62682 -5.26525,3.5007 -7.70508,4.9707 -5.75785,3.46914 -11.22208,6.51061 -16.42383,9.16016 -5.20174,2.64955 -10.14046,4.90707 -14.8457,6.8125 -4.70524,1.90543 -9.17698,3.45852 -13.44531,4.69531 -4.26834,1.23679 -8.33358,2.15717 -12.22461,2.80078 -3.89104,0.64362 -7.60831,1.01081 -11.18164,1.13672 -3.57333,0.12591 -7.00118,0.0116 -10.31641,-0.30469 -3.31523,-0.31631 -6.51804,-0.8345 -9.63477,-1.51757 -1.44204,-0.31605 -2.81377,-0.77742 -4.22265,-1.16016 z m 110,-33.04492 0,170.6875 c 1.76717,-0.34808 3.46864,-0.49986 5.26562,-0.9375 2.55016,-0.62108 5.13156,-1.33526 7.74414,-2.14453 2.61259,-0.80927 5.25578,-1.71408 7.9336,-2.72071 2.67782,-1.00663 5.3889,-2.11496 8.13476,-3.32812 2.74587,-1.21316 5.52704,-2.53208 8.34375,-3.96094 5.63343,-2.85772 11.41205,-6.15611 17.34571,-9.93164 5.93366,-3.77553 12.02295,-8.02823 18.27929,-12.79492 6.25634,-4.76669 12.67978,-10.04576 19.28125,-15.87695 2.4888,-2.19841 5.13182,-4.87554 7.67188,-7.23243 l 0,-194.56445 c -1.82643,1.69969 -3.84639,3.66946 -5.64063,5.32422 -9.43239,8.69912 -18.42171,16.78102 -27,24.2832 -8.57828,7.50219 -16.74552,14.42398 -24.52929,20.80469 -7.78378,6.38071 -15.18356,12.21997 -22.23243,17.55469 -7.04886,5.33471 -13.74558,10.16511 -20.11914,14.52929 -0.16771,0.11484 -0.31125,0.19441 -0.47851,0.3086 z"
              id="path4367" />
  </g>
</svg>
