<?xml version="1.0" encoding="utf-8"?><!DOCTYPE svg PUBLIC "-//W3C//DTD SVG 1.1//EN" "http://www.w3.org/Graphics/SVG/1.1/DTD/svg11.dtd"><svg xmlns="http://www.w3.org/2000/svg" xmlns:xlink="http://www.w3.org/1999/xlink"><symbol viewBox="0 0 16 16" id="camera"><path d="M4.75 9.5a3.25 3.25 0 1 0 6.5 0 3.25 3.25 0 0 0-6.5 0zM15 4h-3.5c-.25-1-.5-2-1.5-2H6C5 2 4.75 3 4.5 4H1c-.55 0-1 .45-1 1v9c0 .55.45 1 1 1h14c.55 0 1-.45 1-1V5c0-.55-.45-1-1-1zm-7 9.938a4.438 4.438 0 1 1 0-8.876 4.438 4.438 0 0 1 0 8.876zM15 7h-2V6h2v1z"/></symbol><symbol viewBox="0 0 16 16" id="equalizer"><path d="M7 2v-.25A.752.752 0 0 0 6.25 1h-2.5a.752.752 0 0 0-.75.75V2H0v2h3v.25c0 .412.337.75.75.75h2.5c.412 0 .75-.338.75-.75V4h9V2H7zM4 4V2h2v2H4zm9 2.75a.753.753 0 0 0-.75-.75h-2.5a.753.753 0 0 0-.75.75V7H0v2h9v.25c0 .412.338.75.75.75h2.5c.412 0 .75-.338.75-.75V9h3V7h-3v-.25zM10 9V7h2v2h-2zm-3 2.75a.753.753 0 0 0-.75-.75h-2.5a.752.752 0 0 0-.75.75V12H0v2h3v.25c0 .412.337.75.75.75h2.5c.412 0 .75-.338.75-.75V14h9v-2H7v-.25zM4 14v-2h2v2H4z"/></symbol><symbol viewBox="0 0 16 16" id="equalizer2"><path d="M14 7h.25c.412 0 .75-.338.75-.75v-2.5a.752.752 0 0 0-.75-.75H14V0h-2v3h-.25a.752.752 0 0 0-.75.75v2.5c0 .412.338.75.75.75H12v9h2V7zm-2-3h2v2h-2V4zm-2.75 9c.412 0 .75-.338.75-.75v-2.5A.753.753 0 0 0 9.25 9H9V0H7v9h-.25a.753.753 0 0 0-.75.75v2.5c0 .412.338.75.75.75H7v3h2v-3h.25zM7 10h2v2H7v-2zM4.25 7c.412 0 .75-.338.75-.75v-2.5A.752.752 0 0 0 4.25 3H4V0H2v3h-.25a.752.752 0 0 0-.75.75v2.5c0 .412.337.75.75.75H2v9h2V7h.25zM2 4h2v2H2V4z"/></symbol><symbol viewBox="0 0 16 16" id="eyedropper"><path d="M15.414.586a2 2 0 0 0-2.828 0L9.897 3.275 8.001 1.379 5.88 3.5l1.663 1.663L.166 12.54a.56.56 0 0 0-.161.46H.001v2.5a.5.5 0 0 0 .5.5h2.563a.561.561 0 0 0 .398-.165l7.377-7.377 1.663 1.663L14.623 8l-1.896-1.896 2.689-2.689a2 2 0 0 0 0-2.828zM2.705 15H1v-1.705l7.337-7.337 1.704 1.704-7.337 7.337z"/></symbol><symbol viewBox="0 0 16 16" id="folder-upload"><path d="M9 4L7 2H0v13h16V4H9zM8 7.5l3.5 3.5H9v4H7v-4H4.5L8 7.5z"/></symbol><symbol viewBox="0 0 16 16" id="loop"><path d="M2 5h10v3l4-4-4-4v3H0v6h2zm12 6H4V8l-4 4 4 4v-3h12V7h-2z"/></symbol><symbol viewBox="0 0 16 16" id="paint-format"><path d="M16 9V3h-3V2c0-.55-.45-1-1-1H1c-.55 0-1 .45-1 1v3c0 .55.45 1 1 1h11c.55 0 1-.45 1-1V4h2v4H6v2h-.5a.5.5 0 0 0-.5.5v5a.5.5 0 0 0 .5.5h2a.5.5 0 0 0 .5-.5v-5a.5.5 0 0 0-.5-.5H7V9h9zm-4-6H1V2h11v1z"/></symbol><symbol viewBox="0 0 16 16" id="pencil"><path d="M13.5 0a2.5 2.5 0 0 1 2 4l-1 1L11 1.5l1-1c.418-.314.937-.5 1.5-.5zM1 11.5L0 16l4.5-1 9.25-9.25-3.5-3.5L1 11.5zm10.181-5.819l-7 7-.862-.862 7-7 .862.862z"/></symbol></svg>